<svg width="25" height="8" viewBox="0 0 25 8" fill="none" xmlns="http://www.w3.org/2000/svg">
<path d="M23.5107 4.5C23.7869 4.5 24.0107 4.27614 24.0107 4C24.0107 3.72386 23.7869 3.5 23.5107 3.5L23.5107 4.5ZM0.708208 3.64645C0.512947 3.84171 0.512947 4.15829 0.708208 4.35356L3.89019 7.53554C4.08545 7.7308 4.40203 7.7308 4.5973 7.53554C4.79256 7.34027 4.79256 7.02369 4.5973 6.82843L1.76887 4L4.5973 1.17157C4.79256 0.976312 4.79256 0.65973 4.5973 0.464468C4.40203 0.269205 4.08545 0.269205 3.89019 0.464468L0.708208 3.64645ZM23.5107 3.5L1.06176 3.5L1.06176 4.5L23.5107 4.5L23.5107 3.5Z" fill="white"/>
</svg>
