<svg width="12" height="16" viewBox="0 0 12 16" fill="none" xmlns="http://www.w3.org/2000/svg">
<path d="M2 0H7.293C7.5582 5.66374e-05 7.81251 0.105451 8 0.293L11.707 4C11.8945 4.18749 11.9999 4.4418 12 4.707V14C12 14.5304 11.7893 15.0391 11.4142 15.4142C11.0391 15.7893 10.5304 16 10 16H2C1.46957 16 0.960859 15.7893 0.585786 15.4142C0.210714 15.0391 0 14.5304 0 14V2C0 1.46957 0.210714 0.960859 0.585786 0.585786C0.960859 0.210714 1.46957 0 2 0V0ZM7.5 1.5V3.5C7.5 3.76522 7.60536 4.01957 7.79289 4.20711C7.98043 4.39464 8.23478 4.5 8.5 4.5H10.5L7.5 1.5Z" fill="white"/>
</svg>
