<svg width="16" height="14" viewBox="0 0 16 14" fill="none" xmlns="http://www.w3.org/2000/svg">
<path fill-rule="evenodd" clip-rule="evenodd" d="M8 2.293L14 8.293V12.5C14 12.8978 13.842 13.2794 13.5607 13.5607C13.2794 13.842 12.8978 14 12.5 14H3.5C3.10218 14 2.72064 13.842 2.43934 13.5607C2.15804 13.2794 2 12.8978 2 12.5V8.293L8 2.293ZM13 1.5V5L11 3V1.5C11 1.36739 11.0527 1.24021 11.1464 1.14645C11.2402 1.05268 11.3674 1 11.5 1H12.5C12.6326 1 12.7598 1.05268 12.8536 1.14645C12.9473 1.24021 13 1.36739 13 1.5Z" fill="white"/>
<path fill-rule="evenodd" clip-rule="evenodd" d="M7.29266 0.500001C7.48018 0.31253 7.73449 0.207214 7.99966 0.207214C8.26482 0.207214 8.51913 0.31253 8.70665 0.500001L15.3537 7.146C15.4475 7.23989 15.5003 7.36723 15.5003 7.5C15.5003 7.63278 15.4475 7.76011 15.3537 7.854C15.2598 7.94789 15.1324 8.00063 14.9997 8.00063C14.8669 8.00063 14.7395 7.94789 14.6457 7.854L7.99966 1.207L1.35365 7.854C1.25977 7.94789 1.13243 8.00063 0.999655 8.00063C0.866879 8.00063 0.739542 7.94789 0.645655 7.854C0.551768 7.76011 0.499023 7.63278 0.499023 7.5C0.499023 7.36723 0.551768 7.23989 0.645655 7.146L7.29266 0.500001Z" fill="white"/>
</svg>
